HIERARCHY
ROOT Hips
{
  OFFSET 55.0626 94.4409 34.4029
  CHANNELS 6 Xposition Yposition Zposition Zrotation Xrotation Yrotation
  JOINT spine
  {
    OFFSET 0 7.80059 0.448573
    CHANNELS 3 Zrotation Xrotation Yrotation
    JOINT spine1
    {
      OFFSET 0 10.1364 0
      CHANNELS 3 Zrotation Xrotation Yrotation
      JOINT spine2
      {
        OFFSET 0 9.71251 0
        CHANNELS 3 Zrotation Xrotation Yrotation
        JOINT Neck
        {
          OFFSET 0 24.9361 1.18887
          CHANNELS 3 Zrotation Xrotation Yrotation
          JOINT Head
          {
            OFFSET 0 7.53384 0
            CHANNELS 3 Zrotation Xrotation Yrotation
            End Site
            {
              OFFSET 0 18.2361 -6.01402
            }
          }
        }
        JOINT RightShoulder
        {
          OFFSET -4.08965 10.4888 -0.569457
          CHANNELS 3 Zrotation Xrotation Yrotation
          JOINT RightArm
          {
            OFFSET 0 13.757 0
            CHANNELS 3 Zrotation Xrotation Yrotation
            JOINT RightArmRoll
            {
              OFFSET 0 6.94478 0
              CHANNELS 3 Zrotation Xrotation Yrotation
              JOINT RightForeArm
              {
                OFFSET 0 20.2277 0
                CHANNELS 3 Zrotation Xrotation Yrotation
                JOINT RightForeArmRoll
                {
                  OFFSET 0 7.79312 0
                  CHANNELS 3 Zrotation Xrotation Yrotation
                  JOINT RightHand
                  {
                    OFFSET 0 15.6391 0
                    CHANNELS 3 Zrotation Xrotation Yrotation
                    End Site
                    {
                      OFFSET 0 0 0
                    }
                  }
                }
              }
            }
          }
        }
        JOINT LeftShoulder
        {
          OFFSET 4.08965 10.4888 -0.569457
          CHANNELS 3 Zrotation Xrotation Yrotation
          JOINT LeftArm
          {
            OFFSET 0 13.757 0
            CHANNELS 3 Zrotation Xrotation Yrotation
            JOINT LeftArmRoll
            {
              OFFSET 0 6.94478 0
              CHANNELS 3 Zrotation Xrotation Yrotation
              JOINT LeftForeArm
              {
                OFFSET 0 20.2277 0
                CHANNELS 3 Zrotation Xrotation Yrotation
                JOINT LeftForeArmRoll
                {
                  OFFSET 0 7.79312 0
                  CHANNELS 3 Zrotation Xrotation Yrotation
                  JOINT LeftHand
                  {
                    OFFSET 0 15.6391 0
                    CHANNELS 3 Zrotation Xrotation Yrotation
                    End Site
                    {
                      OFFSET 0 0 0
                    }
                  }
                }
              }
            }
          }
        }
      }
    }
  }
  JOINT RightUpLeg
  {
    OFFSET -6.91416 -1.26788 -1.06358
    CHANNELS 3 Zrotation Xrotation Yrotation
    JOINT RightUpLegRoll
    {
      OFFSET 0 18.3378 0
      CHANNELS 3 Zrotation Xrotation Yrotation
      JOINT RightLeg
      {
        OFFSET 0 -22.7085 0
        CHANNELS 3 Zrotation Xrotation Yrotation
        JOINT RightLegRoll
        {
          OFFSET 0 22.7828 0
          CHANNELS 3 Zrotation Xrotation Yrotation
          JOINT RightFoot
          {
            OFFSET 0 18.9629 0
            CHANNELS 3 Zrotation Xrotation Yrotation
            JOINT RightToeBase
            {
              OFFSET 0 15.852 0
              CHANNELS 3 Zrotation Xrotation Yrotation
              End Site
              {
                OFFSET 0.00671906 7.677 -0.884893
              }
            }
          }
        }
      }
    }
  }
  JOINT LeftUpLeg
  {
    OFFSET 6.91416 -1.26788 -1.06358
    CHANNELS 3 Zrotation Xrotation Yrotation
    JOINT LeftUpLegRoll
    {
      OFFSET 0 18.3379 0
      CHANNELS 3 Zrotation Xrotation Yrotation
      JOINT LeftLeg
      {
        OFFSET 0 22.7084 0
        CHANNELS 3 Zrotation Xrotation Yrotation
        JOINT LeftLegRoll
        {
          OFFSET 0 22.9934 0
          CHANNELS 3 Zrotation Xrotation Yrotation
          JOINT LeftFoot
          {
            OFFSET 0 18.7522 0
            CHANNELS 3 Zrotation Xrotation Yrotation
            JOINT LeftToeBase
            {
              OFFSET 0 15.852 0
              CHANNELS 3 Zrotation Xrotation Yrotation
              End Site
              {
                OFFSET -0.030112 7.67701 -0.884893
              }
            }
          }
        }
      }
    }
  }
}
MOTION
Frames: 14
Frame Time: 0.00208333
51.6894 56.3236 1.19719 3.00122 -30.4092 23.8344 0.0417633 3.35381 -1.68452 0.193883 10.7085 -3.39135 0.236145 12.3524 -3.40343 3.06793 29.1549 -5.88038 7.53998 -16.0931 -2.76091 92.4837 -3.89408 -4.69288 83.9747 25.8258 -44.4882 -1.05934e-030 1.90833e-014 3.18055e-015 26.9837 57.2272 -12.5602 -5.06346e-006 7.99851e-006 -3 8.02883 -4.95131 0.697461 -75.5763 8.54091 -1.69431 -94.0483 20.2591 -7.09629 5.10651e-006 6.26097e-006 -2.4816e-006 -6.41922 55.6427 6.0202 4.24456e-006 1.67822e-005 3 -8.02987 -4.95091 -0.697537 152.581 47.2987 34.1452 180 3.05087e-005 178.615 -26.0929 83.303 25.1049 -5.05698e-006 -6.87666e-006 1.9575 -26.1156 75.4942 28.6563 8.13649 25.2326 -3.48774 -179.763 57.0051 -4.97619 4.5067e-006 -1.99009e-005 -2.83371 131.794 -81.402 127.366 -1.59878e-006 2.89667e-007 -2.97472 33.7677 73.3549 -27.0499 -8.13844 25.2617 3.48415 
51.6962 56.3206 1.20377 3.00466 -30.404 23.8314 0.0427123 3.36074 -1.68672 0.196749 10.7223 -3.39587 0.23914 12.3662 -3.40803 2.94935 29.1532 -5.82468 7.62142 -16.0645 -2.73567 92.4104 -3.89931 -4.68988 84.0815 25.8432 -44.5397 -3.44285e-030 2.06736e-014 9.54166e-015 26.9777 57.2536 -12.5696 -5.06346e-006 7.99851e-006 -3 8.02883 -4.95131 0.697461 -75.5811 8.51235 -1.6813 -94.0499 20.2559 -7.06245 5.10651e-006 6.26097e-006 -2.4816e-006 -6.4383 55.7074 6.04124 4.24456e-006 1.67822e-005 3 -8.02987 -4.95091 -0.697537 152.584 47.3097 34.1345 180 3.05087e-005 178.615 -26.1182 83.296 25.1334 -5.05698e-006 -6.87666e-006 1.95763 -26.1084 75.4961 28.6584 8.13649 25.2326 -3.48774 -179.767 57.0085 -4.98009 4.5067e-006 -1.99009e-005 -2.83378 131.817 -81.3998 127.388 -1.59878e-006 2.89667e-007 -2.97472 33.7741 73.358 -27.0561 -8.13844 25.2616 3.48414 
51.6853 56.3113 1.19718 3.00799 -30.3987 23.8287 0.0437217 3.36755 -1.68886 0.19975 10.7359 -3.40026 0.242274 12.3798 -3.4125 2.83122 29.1518 -5.7694 7.70303 -16.0351 -2.71066 92.3381 -3.90456 -4.68694 84.1866 25.8602 -44.5905 6.36111e-015 1.11319e-014 -3.18055e-015 26.9714 57.2802 -12.5789 -5.06346e-006 7.99851e-006 -3 8.02883 -4.95131 0.697461 -75.5872 8.48467 -1.66844 -94.0503 20.2531 -7.02923 5.10651e-006 6.26097e-006 -2.4816e-006 -6.45753 55.7709 6.06224 4.24456e-006 1.67822e-005 3 -8.02987 -4.95091 -0.697537 152.587 47.3202 34.1243 180 3.05087e-005 178.615 -26.1433 83.289 25.1616 -5.05698e-006 -6.87666e-006 1.95779 -26.1012 75.4981 28.6607 8.13649 25.2326 -3.48774 -179.77 57.0119 -4.98337 4.5067e-006 -1.99009e-005 -2.83387 131.842 -81.3973 127.411 -1.59878e-006 2.89667e-007 -2.97472 33.7813 73.3615 -27.063 -8.13843 25.2615 3.48412 
51.6839 56.3141 1.18351 3.01124 -30.3935 23.8264 0.0447735 3.37428 -1.69095 0.202848 10.7493 -3.40455 0.245506 12.3932 -3.41687 2.7134 29.1504 -5.7144 7.78474 -16.0052 -2.68583 92.2664 -3.90984 -4.68404 84.2904 25.8767 -44.6408 -9.54166e-015 -7.95139e-015 -9.54166e-015 26.9647 57.3068 -12.588 -5.06346e-006 7.99851e-006 -3 8.02883 -4.95131 0.697461 -75.5941 8.45761 -1.65569 -94.0497 20.2506 -6.99644 5.10651e-006 6.26097e-006 -2.4816e-006 -6.47689 55.8337 6.08323 4.24456e-006 1.67822e-005 3 -8.02987 -4.95091 -0.697537 152.589 47.3304 34.1145 180 3.05087e-005 178.615 -26.1681 83.2819 25.1895 -5.05698e-006 -6.87666e-006 1.95797 -26.0941 75.5001 28.6632 8.13649 25.2326 -3.48774 -179.774 57.0152 -4.98623 4.5067e-006 -1.99009e-005 -2.83398 131.866 -81.3948 127.434 -1.59878e-006 2.89667e-007 -2.97472 33.789 73.3651 -27.0703 -8.13842 25.2614 3.48411 
51.6904 56.3197 1.18025 3.01446 -30.3882 23.8242 0.0458497 3.38095 -1.69301 0.206 10.7626 -3.40878 0.248794 12.4065 -3.4212 2.59577 29.1492 -5.65957 7.8665 -15.975 -2.6611 92.195 -3.91513 -4.68117 84.3935 25.893 -44.6908 1.32417e-030 7.95139e-015 -9.54166e-015 26.958 57.3334 -12.597 -5.06346e-006 7.99851e-006 -3 8.02883 -4.95131 0.697461 -75.6015 8.43089 -1.64301 -94.0487 20.2481 -6.96389 5.10651e-006 6.26097e-006 -2.4816e-006 -6.49636 55.896 6.10425 4.24456e-006 1.67822e-005 3 -8.02987 -4.95091 -0.697537 152.591 47.3405 34.1049 180 3.05087e-005 178.615 -26.1928 83.2749 25.2171 -5.05698e-006 -6.87666e-006 1.95816 -26.0869 75.5022 28.6659 8.13649 25.2326 -3.48774 -179.779 57.0185 -4.98884 4.5067e-006 -1.99009e-005 -2.83411 131.891 -81.3921 127.458 -1.59878e-006 2.89667e-007 -2.97472 33.797 73.3689 -27.0779 -8.13841 25.2612 3.48409 
51.6977 56.3152 1.18783 3.01767 -30.3829 23.8221 0.0469323 3.38761 -1.69506 0.209168 10.7759 -3.413 0.252098 12.4198 -3.4255 2.47818 29.148 -5.60479 7.94825 -15.9447 -2.63641 92.1238 -3.92042 -4.6783 84.4965 25.9092 -44.7407 -1.27222e-014 -9.54166e-015 -3.18055e-015 26.9512 57.3601 -12.606 -5.06346e-006 7.99851e-006 -3 8.02883 -4.95131 0.697461 -75.6089 8.40426 -1.63034 -94.0476 20.2457 -6.93141 5.10651e-006 6.26097e-006 -2.4816e-006 -6.51591 55.9582 6.12532 4.24456e-006 1.67822e-005 3 -8.02987 -4.95091 -0.697537 152.593 47.3506 34.0953 180 3.05087e-005 178.615 -26.2175 83.2679 25.2447 -5.05698e-006 -6.87666e-006 1.95836 -26.0798 75.5044 28.6685 8.13649 25.2326 -3.48774 -179.783 57.0218 -4.99139 4.5067e-006 -1.99009e-005 -2.83424 131.916 -81.3895 127.481 -1.59878e-006 2.89667e-007 -2.97472 33.8051 73.3727 -27.0855 -8.1384 25.2611 3.48406 
51.689 56.3053 1.18442 3.0209 -30.3777 23.8199 0.0480035 3.3943 -1.69713 0.212311 10.7892 -3.41725 0.255377 12.4331 -3.42984 2.36051 29.1466 -5.54992 8.02994 -15.9146 -2.61167 92.0524 -3.9257 -4.67542 84.5999 25.9255 -44.7909 -6.36111e-015 -6.36111e-015 -9.54166e-015 26.9445 57.3868 -12.6151 -5.06346e-006 7.99851e-006 -3 8.02883 -4.95131 0.697461 -75.6162 8.37746 -1.61765 -94.0467 20.2432 -6.8988 5.10651e-006 6.26097e-006 -2.4816e-006 -6.53553 56.0206 6.14651 4.24456e-006 1.67822e-005 3 -8.02987 -4.95091 -0.697537 152.596 47.3607 34.0857 180 3.05087e-005 178.615 -26.2421 83.2609 25.2723 -5.05698e-006 -6.87666e-006 1.95854 -26.0726 75.5065 28.6711 8.13649 25.2326 -3.48774 -179.787 57.0251 -4.99406 4.5067e-006 -1.99009e-005 -2.83436 131.941 -81.3869 127.504 -1.59878e-006 2.89667e-007 -2.97472 33.8131 73.3764 -27.093 -8.1384 25.261 3.48404 
51.6537 56.3554 1.15319 3.02417 -30.3724 23.8174 0.0490453 3.40105 -1.69924 0.21539 10.8026 -3.42157 0.25859 12.4465 -3.43424 2.24263 29.1452 -5.49485 8.11151 -15.8849 -2.58682 91.9805 -3.93097 -4.6725 84.7042 25.9419 -44.8414 -9.54166e-015 -4.77083e-015 -6.36111e-015 26.938 57.4134 -12.6243 -5.06346e-006 7.99851e-006 -3 8.02883 -4.95131 0.697461 -75.6228 8.35021 -1.60488 -94.0465 20.2405 -6.86589 5.10651e-006 6.26097e-006 -2.4816e-006 -6.55521 56.0836 6.16782 4.24456e-006 1.67822e-005 3 -8.02987 -4.95091 -0.697537 152.598 47.3711 34.0757 180 3.05087e-005 178.615 -26.2667 83.2538 25.3 -5.05698e-006 -6.87666e-006 1.95872 -26.0655 75.5085 28.6735 8.13649 25.2326 -3.48774 -179.791 57.0285 -4.99704 4.5067e-006 -1.99009e-005 -2.83447 131.965 -81.3844 127.527 -1.59878e-006 2.89667e-007 -2.97472 33.8207 73.38 -27.1002 -8.13839 25.2609 3.48403 
51.6683 56.3526 1.15405 3.02754 -30.3672 23.8147 0.0500397 3.40789 -1.70139 0.218364 10.8163 -3.42601 0.261695 12.4602 -3.43876 2.1244 29.1435 -5.43945 8.19289 -15.8557 -2.5618 91.9079 -3.93622 -4.66955 84.81 25.9587 -44.8925 9.54166e-015 1.43125e-014 3.18055e-015 26.9318 57.4399 -12.6338 -5.06346e-006 7.99851e-006 -3 8.02883 -4.95131 0.697461 -75.6284 8.32226 -1.59199 -94.0471 20.2376 -6.83249 5.10651e-006 6.26097e-006 -2.4816e-006 -6.57492 56.1475 6.18932 4.24456e-006 1.67822e-005 3 -8.02987 -4.95091 -0.697537 152.601 47.3817 34.0654 180 3.05087e-005 178.615 -26.2915 83.2468 25.3279 -5.05698e-006 -6.87666e-006 1.95887 -26.0583 75.5104 28.6758 8.13649 25.2326 -3.48774 -179.794 57.0318 -5.00051 4.5067e-006 -1.99009e-005 -2.83455 131.989 -81.382 127.55 -1.59878e-006 2.89667e-007 -2.97472 33.8276 73.3834 -27.1069 -8.13838 25.2608 3.48401 
51.6954 56.3055 1.17932 3.03102 -30.3619 23.8115 0.050969 3.41487 -1.70362 0.221194 10.8302 -3.43059 0.264654 12.4741 -3.44342 2.00569 29.1416 -5.3836 8.27405 -15.8273 -2.53653 91.8343 -3.94143 -4.66652 84.9179 25.9759 -44.9444 6.36111e-015 7.95139e-015 -3.18055e-015 26.9262 57.4663 -12.6435 -5.06346e-006 7.99851e-006 -3 8.02883 -4.95131 0.697461 -75.6327 8.29335 -1.57893 -94.0492 20.2343 -6.79842 5.10651e-006 6.26097e-006 -2.4816e-006 -6.59466 56.2126 6.21103 4.24456e-006 1.67822e-005 3 -8.02987 -4.95091 -0.697537 152.604 47.3928 34.0545 180 3.05087e-005 178.614 -26.3164 83.2397 25.3561 -5.05698e-006 -6.87666e-006 1.95899 -26.051 75.5122 28.6778 8.13649 25.2326 -3.48774 -179.797 57.0353 -5.00466 4.5067e-006 -1.99009e-005 -2.8346 132.012 -81.3798 127.572 -1.59878e-006 2.89667e-007 -2.97472 33.8338 73.3864 -27.1129 -8.13838 25.2607 3.484 
51.679 56.3198 1.16269 3.03465 -30.3567 23.8078 0.0518151 3.42202 -1.70594 0.22384 10.8445 -3.43537 0.267425 12.4883 -3.44827 1.88637 29.1392 -5.32718 8.3549 -15.7999 -2.51093 91.7594 -3.94661 -4.66342 85.0283 25.9937 -44.9975 6.36111e-015 1.11319e-014 -0 26.9211 57.4925 -12.6535 -5.06346e-006 7.99851e-006 -3 8.02883 -4.95131 0.697461 -75.6352 8.2632 -1.56566 -94.0529 20.2305 -6.76349 5.10651e-006 6.26097e-006 -2.4816e-006 -6.61441 56.2793 6.23301 4.24456e-006 1.67822e-005 3 -8.02987 -4.95091 -0.697537 152.608 47.4045 34.0428 180 3.05087e-005 178.614 -26.3416 83.2326 25.3848 -5.05698e-006 -6.87666e-006 1.95907 -26.0437 75.5139 28.6795 8.13649 25.2326 -3.48774 -179.799 57.0388 -5.00968 4.5067e-006 -1.99009e-005 -2.83461 132.034 -81.3779 127.594 -1.59878e-006 2.89667e-007 -2.97472 33.8388 73.3889 -27.118 -8.13838 25.2607 3.484 
51.6919 56.2992 1.17586 3.03845 -30.3515 23.8033 0.0525603 3.42938 -1.70837 0.226263 10.8591 -3.44038 0.269966 12.503 -3.45336 1.76632 29.1365 -5.27007 8.43542 -15.7737 -2.48495 91.683 -3.95173 -4.66021 85.1419 26.0123 -45.0518 6.17947e-031 1.11319e-014 -3.18055e-015 26.9167 57.5187 -12.6639 -5.06346e-006 7.99851e-006 -3 8.02883 -4.95131 0.697461 -75.6357 8.23155 -1.55214 -94.0586 20.2261 -6.72752 5.10651e-006 6.26097e-006 -2.4816e-006 -6.63416 56.3478 6.25529 4.24456e-006 1.67822e-005 3 -8.02987 -4.95091 -0.697537 152.613 47.4168 34.0303 180 3.05087e-005 178.614 -26.367 83.2255 25.4139 -5.05698e-006 -6.87666e-006 1.9591 -26.0364 75.5153 28.6808 8.13649 25.2326 -3.48774 -179.8 57.0424 -5.01574 4.5067e-006 -1.99009e-005 -2.83456 132.055 -81.3762 127.615 -1.59878e-006 2.89667e-007 -2.97472 33.8425 73.3909 -27.122 -8.13838 25.2608 3.48401 
51.6962 56.3079 1.1689 3.04247 -30.3463 23.7981 0.0531868 3.43699 -1.71093 0.228422 10.8743 -3.44568 0.272239 12.5182 -3.45872 1.64539 29.1332 -5.21213 8.51552 -15.749 -2.4585 91.6048 -3.95679 -4.65689 85.2592 26.0318 -45.1077 3.18055e-015 6.36111e-015 -3.18055e-015 26.9132 57.5446 -12.6748 -5.06346e-006 7.99851e-006 -3 8.02883 -4.95131 0.697461 -75.6338 8.19814 -1.5383 -94.0668 20.2211 -6.69032 5.10651e-006 6.26097e-006 -2.4816e-006 -6.6539 56.4187 6.27792 4.24456e-006 1.67822e-005 3 -8.02987 -4.95091 -0.697537 152.619 47.4299 34.0167 180 3.05087e-005 178.614 -26.3928 83.2184 25.4436 -5.05698e-006 -6.87666e-006 1.95908 -26.0289 75.5164 28.6816 8.13649 25.2326 -3.48774 -179.799 57.0462 -5.02304 4.5067e-006 -1.99009e-005 -2.83446 132.075 -81.375 127.634 -1.59878e-006 2.89667e-007 -2.97472 33.8447 73.3922 -27.1247 -8.13839 25.2609 3.48403 
51.6941 56.301 1.16294 3.04673 -30.3412 23.792 0.0536766 3.44487 -1.71364 0.230278 10.8901 -3.45129 0.274203 12.5339 -3.46439 1.52347 29.1294 -5.15326 8.59517 -15.726 -2.43152 91.5246 -3.96179 -4.65343 85.3807 26.0522 -45.1653 1.59028e-014 2.54444e-014 1.27222e-014 26.9107 57.5702 -12.6863 -5.06346e-006 7.99851e-006 -3 8.02883 -4.95131 0.697461 -75.6291 8.16271 -1.52412 -94.0778 20.2152 -6.65172 5.10651e-006 6.26097e-006 -2.4816e-006 -6.67362 56.492 6.30095 4.24456e-006 1.67822e-005 3 -8.02987 -4.95091 -0.697537 152.626 47.444 34.0019 180 3.05087e-005 178.614 -26.4189 83.2112 25.474 -5.05698e-006 -6.87666e-006 1.95899 -26.0214 75.5173 28.6819 8.13649 25.2326 -3.48774 -179.797 57.0501 -5.03176 4.5067e-006 -1.99009e-005 -2.83428 132.094 -81.3741 127.653 -1.59878e-006 2.89667e-007 -2.97472 33.8451 73.3929 -27.1259 -8.1384 25.2611 3.48406 
